nColumns=28
nRows=40
DataType=double
version=3
OpenSimVersion=4.1
endheader
time	ground_force_1_vx	ground_force_1_vy	ground_force_1_vz	ground_force_1_px	ground_force_1_py	ground_force_1_pz	ground_force_1_mx	ground_force_1_my	ground_force_1_mz	ground_force_2_vx	ground_force_2_vy	ground_force_2_vz	ground_force_2_px	ground_force_2_py	ground_force_2_pz	ground_force_2_mx	ground_force_2_my	ground_force_2_mz	ground_force_3_vx	ground_force_3_vy	ground_force_3_vz	ground_force_3_px	ground_force_3_py	ground_force_3_pz	ground_force_3_mx	ground_force_3_my	ground_force_3_mz
3.28	5.30794	496.77	-27.0174	-0.272097	0.006	-0.4137	0	-9.83189	0	1.91815	435.718	40.1388	-0.26014	0.006	-0.853297	0	7.20846	0	0	0	0	0	0	0	0	0	0
3.29	4.28864	497.55	-26.0791	-0.271567	0.006	-0.413874	0	-9.93893	0	2.61751	443.678	40.5423	-0.259363	0.006	-0.853328	0	7.27453	0	0	0	0	0	0	0	0	0	0
3.3	3.34892	498.18	-25.2161	-0.270974	0.006	-0.413978	0	-10.0574	0	3.31083	450.626	40.9805	-0.258544	0.006	-0.853443	0	7.32834	0	0	0	0	0	0	0	0	0	0
3.31	2.53469	498.745	-24.4493	-0.270348	0.006	-0.414018	0	-10.1855	0	3.95118	456.31	41.4082	-0.257688	0.006	-0.85363	0	7.36634	0	0	0	0	0	0	0	0	0	0
3.32	1.88401	499.323	-23.7943	-0.269713	0.006	-0.413999	0	-10.32	0	4.5042	460.504	41.7705	-0.256804	0.006	-0.853875	0	7.385	0	0	0	0	0	0	0	0	0	0
3.33	1.42424	499.988	-23.2602	-0.269091	0.006	-0.413933	0	-10.4561	0	4.94445	463.02	42.0096	-0.255897	0.006	-0.854164	0	7.38108	0	0	0	0	0	0	0	0	0	0
3.34	1.16818	500.805	-22.8505	-0.268496	0.006	-0.413829	0	-10.5882	0	5.2546	463.722	42.07	-0.254972	0.006	-0.85448	0	7.35166	0	0	0	0	0	0	0	0	0	0
3.35	1.11198	501.839	-22.5636	-0.267937	0.006	-0.413699	0	-10.7099	0	5.42802	462.549	41.9007	-0.254034	0.006	-0.85481	0	7.29438	0	0	0	0	0	0	0	0	0	0
3.36	1.23612	503.151	-22.3933	-0.267418	0.006	-0.413556	0	-10.8154	0	5.46981	459.521	41.4609	-0.253089	0.006	-0.855138	0	7.20805	0	0	0	0	0	0	0	0	0	0
3.37	1.5114	504.789	-22.3289	-0.266941	0.006	-0.41341	0	-10.8989	0	5.39574	454.748	40.7252	-0.252141	0.006	-0.855452	0	7.09284	0	0	0	0	0	0	0	0	0	0
3.38	1.90396	506.784	-22.3568	-0.266508	0.006	-0.413274	0	-10.9561	0	5.22622	448.416	39.6869	-0.251199	0.006	-0.855739	0	6.95033	0	0	0	0	0	0	0	0	0	0
3.39	2.37584	509.14	-22.4617	-0.266118	0.006	-0.413158	0	-10.9836	0	4.98192	440.77	38.3585	-0.25027	0.006	-0.855989	0	6.78332	0	0	0	0	0	0	0	0	0	0
3.4	2.88474	511.822	-22.6271	-0.265769	0.006	-0.413069	0	-10.9794	0	4.68355	432.094	36.7681	-0.249361	0.006	-0.856197	0	6.59566	0	0	0	0	0	0	0	0	0	0
3.41	3.38763	514.758	-22.8325	-0.26546	0.006	-0.413014	0	-10.9424	0	4.3531	422.686	34.9543	-0.248484	0.006	-0.856356	0	6.392	0	0	0	0	0	0	0	0	0	0
3.42	3.8477	517.845	-23.0551	-0.26519	0.006	-0.412997	0	-10.8727	0	4.01388	412.83	32.9605	-0.247652	0.006	-0.856461	0	6.17738	0	0	0	0	0	0	0	0	0	0
3.43	4.23695	520.956	-23.2724	-0.264961	0.006	-0.413021	0	-10.7713	0	3.68867	402.787	30.8337	-0.246881	0.006	-0.856512	0	5.95718	0	0	0	0	0	0	0	0	0	0
3.44	4.53444	523.965	-23.464	-0.264772	0.006	-0.413086	0	-10.6406	0	3.39891	392.802	28.6241	-0.246187	0.006	-0.85651	0	5.73698	0	0	0	0	0	0	0	0	0	0
3.45	4.72393	526.752	-23.6139	-0.264621	0.006	-0.413191	0	-10.4836	0	3.16448	383.112	26.3863	-0.245587	0.006	-0.856458	0	5.52236	0	0	0	0	0	0	0	0	0	0
3.46	4.79313	529.21	-23.7125	-0.264504	0.006	-0.41333	0	-10.3043	0	3.00245	373.939	24.1776	-0.245095	0.006	-0.856364	0	5.31852	0	0	0	0	0	0	0	0	0	0
3.47	4.73603	531.245	-23.7556	-0.264416	0.006	-0.413496	0	-10.1073	0	2.92572	365.485	22.056	-0.244725	0.006	-0.85624	0	5.13021	0	0	0	0	0	0	0	0	0	0
3.48	4.55501	532.775	-23.7431	-0.264352	0.006	-0.413682	0	-9.89751	0	2.94245	357.921	20.0766	-0.244484	0.006	-0.856101	0	4.96157	0	0	0	0	0	0	0	0	0	0
3.49	4.25827	533.72	-23.6783	-0.264304	0.006	-0.413879	0	-9.67978	0	3.05592	351.376	18.2876	-0.244376	0.006	-0.855962	0	4.81602	0	0	0	0	0	0	0	0	0	0
3.5	3.85513	534.009	-23.5665	-0.264264	0.006	-0.414077	0	-9.45874	0	3.26395	345.927	16.7277	-0.244397	0.006	-0.855838	0	4.69604	0	0	0	0	0	0	0	0	0	0
3.51	3.35394	533.58	-23.4163	-0.264221	0.006	-0.414267	0	-9.2387	0	3.56038	341.602	15.4259	-0.244541	0.006	-0.855748	0	4.603	0	0	0	0	0	0	0	0	0	0
3.52	2.76441	532.396	-23.2389	-0.264163	0.006	-0.414439	0	-9.02359	0	3.9376	338.387	14.4017	-0.244794	0.006	-0.855705	0	4.53727	0	0	0	0	0	0	0	0	0	0
3.53	2.09793	530.438	-23.0459	-0.264077	0.006	-0.414585	0	-8.81672	0	4.38765	336.242	13.6693	-0.245139	0.006	-0.855724	0	4.49843	0	0	0	0	0	0	0	0	0	0
3.54	1.36605	527.712	-22.8465	-0.263953	0.006	-0.4147	0	-8.62064	0	4.90159	335.115	13.2394	-0.245555	0.006	-0.855817	0	4.48547	0	0	0	0	0	0	0	0	0	0
3.55	0.578436	524.247	-22.6449	-0.263783	0.006	-0.41478	0	-8.4372	0	5.46816	334.952	13.1199	-0.24602	0.006	-0.855994	0	4.49695	0	0	0	0	0	0	0	0	0	0
3.56	-0.257193	520.103	-22.4406	-0.26356	0.006	-0.414824	0	-8.26767	0	6.07277	335.698	13.3135	-0.246512	0.006	-0.856258	0	4.53115	0	0	0	0	0	0	0	0	0	0
3.57	-1.13419	515.367	-22.2287	-0.263281	0.006	-0.414833	0	-8.11286	0	6.69799	337.288	13.8145	-0.247012	0.006	-0.85661	0	4.58605	0	0	0	0	0	0	0	0	0	0
3.58	-2.04406	510.152	-22.0011	-0.262948	0.006	-0.41481	0	-7.97314	0	7.32597	339.651	14.6085	-0.247508	0.006	-0.857043	0	4.65917	0	0	0	0	0	0	0	0	0	0
3.59	-2.97241	504.587	-21.7484	-0.262568	0.006	-0.414759	0	-7.84837	0	7.94075	342.7	15.6724	-0.247989	0.006	-0.857547	0	4.74761	0	0	0	0	0	0	0	0	0	0
3.6	-3.89919	498.816	-21.4634	-0.262152	0.006	-0.414687	0	-7.73806	0	8.52859	346.332	16.9754	-0.24845	0.006	-0.858107	0	4.84813	0	0	0	0	0	0	0	0	0	0
3.61	-4.80355	492.991	-21.1446	-0.261712	0.006	-0.414601	0	-7.64128	0	9.07831	350.427	18.4804	-0.248886	0.006	-0.858708	0	4.95704	0	0	0	0	0	0	0	0	0	0
3.62	-5.6677	487.262	-20.7958	-0.261262	0.006	-0.414506	0	-7.55664	0	9.58189	354.848	20.1448	-0.249292	0.006	-0.859336	0	5.07039	0	0	0	0	0	0	0	0	0	0
3.63	-6.47718	481.775	-20.4258	-0.260812	0.006	-0.414409	0	-7.48244	0	10.0348	359.451	21.9217	-0.249668	0.006	-0.859973	0	5.18405	0	0	0	0	0	0	0	0	0	0
3.64	-7.21966	476.67	-20.0483	-0.260377	0.006	-0.414315	0	-7.41678	0	10.436	364.079	23.7611	-0.250015	0.006	-0.860605	0	5.29397	0	0	0	0	0	0	0	0	0	0
3.65	-7.88405	472.074	-19.6821	-0.259967	0.006	-0.414228	0	-7.35774	0	10.7862	368.568	25.6091	-0.250335	0.006	-0.861217	0	5.39611	0	0	0	0	0	0	0	0	0	0
3.66	-8.46089	468.111	-19.35	-0.259589	0.006	-0.414151	0	-7.30359	0	11.0835	372.736	27.4072	-0.250631	0.006	-0.861799	0	5.4865	0	0	0	0	0	0	0	0	0	0
3.67	-8.94298	464.895	-19.0751	-0.259248	0.006	-0.414086	0	-7.25286	0	11.3226	376.398	29.0959	-0.250903	0.006	-0.862338	0	5.56125	0	0	0	0	0	0	0	0	0	0
